<svg xmlns="http://www.w3.org/2000/svg" xmlns:xlink="http://www.w3.org/1999/xlink" xmlns:inkscape="http://www.inkscape.org/namespaces/inkscape" version="1.1" width="320" height="320" viewBox="0 0 320 320">
<defs>
<clipPath id="clip_0">
<path transform="matrix(1,0,0,-1,0,320)" d="M0 320H320V0H0Z"/>
</clipPath>
</defs>
<g inkscape:groupmode="layer" inkscape:label="Layer 1">
<g clip-path="url(#clip_0)">
<path transform="matrix(1,0,0,-1,71.4558,152.4805)" d="M0 0C2.018 0 3.76 .895 5.225 2.686 6.689 4.476 7.422 6.641 7.422 9.18 7.422 12.564 5.924 14.258 2.93 14.258H-1.465L-4.395 0ZM-5.762-29.297C-3.158-29.297-1.025-28.158 .635-25.879 2.295-23.601 3.125-21.029 3.125-18.164 3.125-16.537 2.718-15.153 1.904-14.014 1.09-12.875-.163-12.305-1.855-12.305H-6.934L-10.547-29.297ZM26.465 14.551C26.465 9.537 25.098 5.127 22.363 1.318 19.629-2.49 16.113-4.818 11.816-5.664L11.719-5.859C18.359-6.511 21.68-10.449 21.68-17.676 21.68-21.582 20.67-25.603 18.652-29.736 16.634-33.871 13.705-37.012 9.863-39.16 6.022-41.309 1.53-42.383-3.613-42.383H-31.348L-16.895 27.344H10.547C21.159 27.344 26.465 23.079 26.465 14.551" fill="#231f20"/>
<path transform="matrix(1,0,0,-1,116.7664,180.0195)" d="M0 0H22.363L19.336-14.844H-21.191L-6.738 54.883H11.426Z" fill="#231f20"/>
<path transform="matrix(1,0,0,-1,161.2693,194.8633)" d="M0 0H-18.164L-3.711 69.727H14.454Z" fill="#231f20"/>
<path transform="matrix(1,0,0,-1,220.9602,127.1875)" d="M0 0C2.995-2.279 4.492-5.859 4.492-10.742 4.492-12.956 4.199-15.397 3.613-18.066H-13.379C-12.923-16.244-12.695-14.746-12.695-13.574-12.695-10.449-13.997-8.887-16.602-8.887-18.685-8.887-20.394-9.685-21.729-11.279-23.063-12.875-23.73-14.746-23.73-16.895-23.73-18.783-23.015-20.329-21.582-21.533-20.149-22.738-17.839-24.023-14.648-25.391-8.854-27.865-4.964-30.388-2.979-32.959-.993-35.531 0-38.607 0-42.188 0-44.857-.603-48.047-1.807-51.758-3.011-55.469-4.866-58.643-7.373-61.279-9.88-63.916-13.021-65.869-16.797-67.139-20.573-68.408-24.902-69.043-29.785-69.043-36.556-69.043-41.618-67.969-44.971-65.82-48.324-63.672-50-60.287-50-55.664-50-53.386-49.544-50.488-48.633-46.973H-31.055C-31.575-48.861-31.836-50.488-31.836-51.855-31.836-55.111-30.273-56.738-27.148-56.738-25-56.738-23.226-55.893-21.826-54.199-20.427-52.507-19.727-50.554-19.727-48.34-19.727-46.452-20.329-44.955-21.533-43.848-22.737-42.741-25.879-41.016-30.957-38.672-35.449-36.589-38.493-34.375-40.088-32.031-41.683-29.687-42.48-26.921-42.48-23.73-42.48-19.499-41.455-15.17-39.404-10.742-37.354-6.315-34.277-2.849-30.176-.342-26.074 2.164-20.801 3.418-14.355 3.418-7.78 3.418-2.995 2.278 0 0" fill="#231f20"/>
<path transform="matrix(1,0,0,-1,275.3997,127.1875)" d="M0 0C2.995-2.279 4.492-5.859 4.492-10.742 4.492-12.956 4.199-15.397 3.613-18.066H-13.379C-12.923-16.244-12.695-14.746-12.695-13.574-12.695-10.449-13.997-8.887-16.602-8.887-18.685-8.887-20.394-9.685-21.729-11.279-23.063-12.875-23.73-14.746-23.73-16.895-23.73-18.783-23.015-20.329-21.582-21.533-20.149-22.738-17.839-24.023-14.648-25.391-8.854-27.865-4.964-30.388-2.979-32.959-.993-35.531 0-38.607 0-42.188 0-44.857-.603-48.047-1.807-51.758-3.011-55.469-4.866-58.643-7.373-61.279-9.88-63.916-13.021-65.869-16.797-67.139-20.573-68.408-24.902-69.043-29.785-69.043-36.556-69.043-41.618-67.969-44.971-65.82-48.323-63.672-50-60.287-50-55.664-50-53.386-49.544-50.488-48.633-46.973H-31.055C-31.575-48.861-31.836-50.488-31.836-51.855-31.836-55.111-30.273-56.738-27.148-56.738-25-56.738-23.226-55.893-21.826-54.199-20.427-52.507-19.727-50.554-19.727-48.34-19.727-46.452-20.329-44.955-21.533-43.848-22.737-42.741-25.879-41.016-30.957-38.672-35.449-36.589-38.493-34.375-40.088-32.031-41.683-29.687-42.48-26.921-42.48-23.73-42.48-19.499-41.455-15.17-39.404-10.742-37.354-6.315-34.277-2.849-30.176-.342-26.074 2.164-20.801 3.418-14.355 3.418-7.78 3.418-2.995 2.278 0 0" fill="#231f20"/>
</g>
</g>
</svg>
